<svg xmlns="http://www.w3.org/2000/svg" xmlns:xlink="http://www.w3.org/1999/xlink" xml:space="preserve" width="178.705mm" height="115.088mm" style="shape-rendering:geometricPrecision; text-rendering:geometricPrecision; image-rendering:optimizeQuality; fill-rule:evenodd; clip-rule:evenodd" viewBox="0 0 5588 3599">
 <defs>
  <style type="text/css">
   <![CDATA[
    .fil2 {fill:#D7E8F7}
    .fil1 {fill:#C4E8FF}
    .fil0 {fill:#E5FFB2}
   ]]>
  </style>
 </defs>
 <g id="Layer_x0020_1">
  <metadata id="CorelCorpID_0Corel-Layer"></metadata>
  <g id="_2026548158288">
   <rect class="fil0" transform="matrix(0.88534 -0.280081 0.280081 0.88534 41.6091 239.958)" width="1006" height="870" rx="177" ry="177"></rect>
   <rect class="fil1" transform="matrix(0.981757 -0.310583 0.310583 0.981757 4376.3 276.328)" width="1006" height="870" rx="177" ry="177"></rect>
   <rect class="fil0" transform="matrix(0.830209 -0.26264 0.26264 0.830209 4044.68 2915.9)" width="1006" height="870" rx="177" ry="177"></rect>
   <rect class="fil1" transform="matrix(0.962062 -0.304353 0.304353 0.962062 178.296 2700.26)" width="1006" height="870" rx="177" ry="177"></rect>
   <path class="fil0" d="M1885 3115c0,23 8,42 24,58 16,16 35,24 58,24 22,0 42,-8 57,-24 16,-16 24,-35 24,-58 0,-22 -8,-42 -24,-58 -15,-15 -35,-23 -57,-23 -23,0 -42,8 -58,23 -16,16 -24,36 -24,58z"></path>
   <path class="fil1" d="M4242 2596c0,23 8,42 23,58 16,16 36,24 58,24 23,0 42,-8 58,-24 16,-16 24,-35 24,-58 0,-22 -8,-42 -24,-58 -16,-15 -35,-23 -58,-23 -22,0 -42,8 -58,23 -15,16 -23,36 -23,58z"></path>
   <path class="fil0" d="M3611 1299c0,12 4,23 13,32 9,8 20,13 32,13 13,0 23,-5 32,-13 9,-9 13,-20 13,-32 0,-13 -4,-23 -13,-32 -9,-9 -19,-13 -32,-13 -12,0 -23,4 -32,13 -9,9 -13,19 -13,32z"></path>
   <path class="fil1" d="M662 1991c0,9 3,16 10,23 6,6 13,9 22,9 9,0 16,-3 22,-9 7,-7 10,-14 10,-23 0,-9 -3,-16 -10,-22 -6,-6 -13,-9 -22,-9 -9,0 -16,3 -22,9 -7,6 -10,13 -10,22z"></path>
   <path class="fil2" d="M471 2285l109 0c12,0 21,10 21,21l0 110c0,11 -9,21 -21,21l-109 0c-12,0 -22,-10 -22,-21l0 -110c0,-11 10,-21 22,-21zm0 160l109 0c16,0 29,-13 29,-29l0 -110c0,-16 -13,-29 -29,-29l-109 0c-16,0 -30,13 -30,29l0 110c0,16 14,29 30,29z"></path>
   <path class="fil0" d="M4706 1544l110 0c11,0 21,9 21,21l0 109c0,12 -10,22 -21,22l-110 0c-11,0 -21,-10 -21,-22l0 -109c0,-12 10,-21 21,-21zm0 160l110 0c16,0 29,-14 29,-30l0 -109c0,-16 -13,-29 -29,-29l-110 0c-16,0 -29,13 -29,29l0 109c0,16 13,30 29,30z"></path>
   <path class="fil1" d="M0 1173c0,9 3,17 9,23 6,6 14,9 23,9 8,0 16,-3 22,-9 6,-6 9,-14 9,-23 0,-8 -3,-16 -9,-22 -6,-6 -14,-9 -22,-9 -9,0 -17,3 -23,9 -6,6 -9,14 -9,22z"></path>
   <path class="fil1" d="M4639 1703c0,12 4,23 13,31 9,9 20,14 32,14 13,0 23,-5 32,-14 9,-8 13,-19 13,-31 0,-13 -4,-23 -13,-32 -9,-9 -19,-13 -32,-13 -12,0 -23,4 -32,13 -9,9 -13,19 -13,32z"></path>
  </g>
 </g>
</svg>