<?xml version="1.0" encoding="UTF-8"?>
<!DOCTYPE svg PUBLIC "-//W3C//DTD SVG 1.1//EN" "http://www.w3.org/Graphics/SVG/1.1/DTD/svg11.dtd">
<!-- Creator: CorelDRAW X7 -->
<svg xmlns="http://www.w3.org/2000/svg" xml:space="preserve" width="44.0266mm" height="37.2533mm" version="1.1" style="shape-rendering:geometricPrecision; text-rendering:geometricPrecision; image-rendering:optimizeQuality; fill-rule:evenodd; clip-rule:evenodd"
viewBox="0 0 1968 1665"
 xmlns:xlink="http://www.w3.org/1999/xlink">
 <defs>
  <style type="text/css">
   <![CDATA[
    .fil1 {fill:none}
    .fil2 {fill:#007DCC}
    .fil0 {fill:#EBF7FF}
   ]]>
  </style>
 </defs>
 <g id="Layer_x0020_1">
  <metadata id="CorelCorpID_0Corel-Layer"/>
  <path class="fil0" d="M870 1602c-298,99 -865,-57 -870,-719 -5,-662 1588,-1227 1341,-623 -246,605 385,1060 -471,1342z"/>
  <rect class="fil1" width="1968" height="1665"/>
  <path class="fil2" d="M1208 766l-565 0 0 332 565 0 0 -332zm-705 538c-22,0 -39,-18 -39,-39 0,-21 17,-39 39,-39l845 0c22,0 39,18 39,39 0,21 -17,39 -39,39l-845 0zm911 -441l0 86 119 0c21,0 39,17 39,39 0,21 -18,38 -39,38l-247 0 0 110c0,22 -18,39 -39,39l-643 0c-21,0 -39,-17 -39,-39l0 -409c0,-21 18,-39 39,-39l197 0 0 -457c0,-22 17,-39 39,-39l928 0c21,0 39,17 39,39l0 593c0,22 -18,39 -39,39l-354 0zm123 192l211 0c18,0 35,7 47,19 12,12 20,29 20,48l0 367c0,18 -8,35 -20,47l0 0c-12,12 -29,20 -47,20l-211 0c-18,0 -35,-8 -47,-20 -12,-12 -20,-29 -20,-47l0 -367c0,-19 8,-36 20,-48 12,-12 29,-19 47,-19zm200 77l-189 0 0 346 189 0 0 -346zm-451 -347l443 0 0 -515 -851 0 0 418 369 0c21,0 39,18 39,39l0 58z"/>
 </g>
</svg>
